<?xml version="1.0" encoding="UTF-8"?>
<svg id="Layer_1" data-name="Layer 1" xmlns="http://www.w3.org/2000/svg" viewBox="0 0 1145.48 181.08">
  <defs>
    <style>
      .cls-1 {
        fill: #f0f0f0;
      }
    </style>
  </defs>
  <g>
    <path class="cls-1" d="M526.88,39.03h-3.92l-1.84-4.99h-9.48l-1.81,4.99h-3.95l8.11-21.21h4.79l8.11,21.21ZM520.05,31.09l-3.69-9.95-3.65,9.95h7.34Z"/>
    <path class="cls-1" d="M535.81,39.03v-21.24h7.57c6.3,0,10.82,3.72,10.82,10.62s-4.52,10.62-10.82,10.62h-7.57ZM539.57,35.78h3.65c4.09,0,7.2-2.18,7.2-7.37s-3.12-7.37-7.2-7.37h-3.65v14.74Z"/>
    <path class="cls-1" d="M560.91,17.78h4.09l6.6,15.28,6.57-15.28h4.09l-9.72,21.24h-1.91l-9.72-21.24Z"/>
    <path class="cls-1" d="M607.97,39.03h-3.92l-1.84-4.99h-9.48l-1.81,4.99h-3.95l8.11-21.21h4.79l8.11,21.21ZM601.14,31.09l-3.69-9.95-3.65,9.95h7.34Z"/>
    <path class="cls-1" d="M616.94,17.78h3.79l12.1,15.35v-15.35h3.75v21.24h-3.75l-12.13-15.41v15.41h-3.75v-21.24Z"/>
    <path class="cls-1" d="M664.92,23.72c-1.01-1.54-3.48-2.92-6.94-2.92-4.39,0-7.37,3.12-7.37,7.47s3.05,7.74,7.51,7.74c3.18,0,5.56-1.21,6.8-2.78v4.32c-1.74,1.17-4.09,1.81-6.67,1.81-6.9,0-11.39-4.46-11.39-10.76s4.36-11.12,11.49-11.12c2.48,0,4.82.64,6.57,1.84v4.39Z"/>
    <path class="cls-1" d="M675.59,39.03v-21.24h15.28v3.25h-11.53v5.16h11.06v2.95h-11.06v6.64h11.36v3.25h-15.11Z"/>
    <path class="cls-1" d="M701.03,39.03v-21.24h7.57c6.3,0,10.82,3.72,10.82,10.62s-4.52,10.62-10.82,10.62h-7.57ZM704.78,35.78h3.65c4.09,0,7.2-2.18,7.2-7.37s-3.12-7.37-7.2-7.37h-3.65v14.74Z"/>
    <path class="cls-1" d="M743.82,39.03v-21.24h7.81c4.32,0,7.91,1.54,7.91,6.3s-3.52,6.57-7.81,6.57h-4.15v8.38h-3.75ZM747.58,27.57h3.92c2.45,0,4.26-.74,4.26-3.38,0-2.78-2.01-3.15-4.26-3.15h-3.92v6.53Z"/>
    <path class="cls-1" d="M769.11,39.03v-21.24h15.28v3.25h-11.53v5.16h11.06v2.95h-11.06v6.64h11.36v3.25h-15.11Z"/>
    <path class="cls-1" d="M794.59,39.03v-21.24h7.81c4.32,0,7.91,1.54,7.91,6.3s-3.52,6.57-7.81,6.57h-4.15v8.38h-3.75ZM798.34,27.57h3.92c2.45,0,4.26-.74,4.26-3.38,0-2.78-2.01-3.15-4.26-3.15h-3.92v6.53Z"/>
    <path class="cls-1" d="M826.05,39.03v-17.96h-7.34v-3.25h18.39v3.25h-7.34v17.96h-3.72Z"/>
    <path class="cls-1" d="M846.47,39.03v-21.24h3.75v21.24h-3.75Z"/>
    <path class="cls-1" d="M861.61,39.03v-21.24h7.57c6.3,0,10.82,3.72,10.82,10.62s-4.52,10.62-10.82,10.62h-7.57ZM865.36,35.78h3.65c4.09,0,7.2-2.18,7.2-7.37s-3.12-7.37-7.2-7.37h-3.65v14.74Z"/>
    <path class="cls-1" d="M890.27,39.03v-21.24h15.28v3.25h-11.53v5.16h11.06v2.95h-11.06v6.64h11.36v3.25h-15.11Z"/>
    <path class="cls-1" d="M946.66,21.87l-7.81,17.15h-1.91l-9.72-21.24h4.09l6.57,15.28,6.9-15.28h3.72l6.94,15.28,6.53-15.28h4.12l-9.72,21.24h-1.91l-7.81-17.15Z"/>
    <path class="cls-1" d="M975.11,39.03v-21.24h15.28v3.25h-11.53v5.16h11.06v2.95h-11.06v6.64h11.36v3.25h-15.11Z"/>
    <path class="cls-1" d="M1000.59,39.03v-21.21h3.75v17.96h11.16v3.25h-14.91Z"/>
    <path class="cls-1" d="M1024.68,39.03v-21.21h3.75v17.96h11.16v3.25h-14.91Z"/>
    <path class="cls-1" d="M1048.76,17.78h3.79l12.1,15.35v-15.35h3.75v21.24h-3.75l-12.13-15.41v15.41h-3.75v-21.24Z"/>
    <path class="cls-1" d="M1079.86,39.03v-21.24h15.28v3.25h-11.53v5.16h11.06v2.95h-11.06v6.64h11.36v3.25h-15.11Z"/>
    <path class="cls-1" d="M1112.48,20.73c-1.74,0-3.99.54-3.99,2.48,0,1.77,1.64,2.55,3.95,3.22l.97.27c3.15.91,6.87,2.01,6.87,6.37,0,4.62-4.39,6.3-8.41,6.3-2.81,0-5.9-.87-8.18-2.61v-3.45c2.24,1.78,5.7,2.85,8.58,2.85,2.08,0,4.09-.57,4.09-2.88,0-1.91-2.21-2.51-4.69-3.22l-1.47-.4c-2.91-.91-5.63-2.51-5.63-6.23,0-4.52,4.12-5.96,8.01-5.96,2.65,0,5.19.91,6.63,1.71v3.62c-1.27-.97-4.26-2.04-6.73-2.04Z"/>
    <path class="cls-1" d="M1137.68,20.73c-1.74,0-3.99.54-3.99,2.48,0,1.77,1.64,2.55,3.95,3.22l.97.27c3.15.91,6.87,2.01,6.87,6.37,0,4.62-4.39,6.3-8.41,6.3-2.81,0-5.9-.87-8.18-2.61v-3.45c2.24,1.78,5.7,2.85,8.58,2.85,2.08,0,4.09-.57,4.09-2.88,0-1.91-2.21-2.51-4.69-3.22l-1.47-.4c-2.91-.91-5.63-2.51-5.63-6.23,0-4.52,4.12-5.96,8.01-5.96,2.65,0,5.19.91,6.63,1.71v3.62c-1.27-.97-4.26-2.04-6.73-2.04Z"/>
  </g>
  <g>
    <path class="cls-1" d="M317.24,52.73h-53.21v68.13c6.38-9.09,16.97-15.05,28.91-15.05v-31.06h19.09c15.03.37,22.74,6.58,23.13,18.63-.4,11.83-7.82,18.02-22.31,18.6-.27.02-.54.03-.83.03h-19.09c-14.77,0-27.03,11.05-28.91,25.33v40.15h28.91v-44.04h21.4c2.31,0,4.52-.06,6.67-.19.57-.03,1.15-.06,1.7-.11.41-.03.81-.06,1.21-.1.16-.02.33-.03.49-.05.4-.03.8-.06,1.19-.13.56-.05,1.11-.11,1.66-.19,25.63-3.18,38.29-16.67,37.96-40.44-1.15-25.58-17.15-38.77-47.99-39.52Z"/>
    <path class="cls-1" d="M457.32,125.62c0,21.51-9.08,32.27-27.24,32.27-18.94-.38-28.6-10.95-28.98-31.69V52.66h-28.98v73.54c.38,36.59,19.12,54.88,56.22,54.88,39.02,0,58.53-18.67,58.53-56.01V52.66h-29.55v72.96Z"/>
    <path class="cls-1" d="M608.29,89.94c-1.08-22.38-15.13-34.69-42.15-36.94-.59-.05-1.18-.1-1.77-.13-.41-.03-.83-.05-1.26-.08-.18,0-.33-.02-.51-.03-.43-.02-.86-.03-1.29-.05-.54-.02-1.08-.03-1.62-.05h-58.45v1.29c4.09,12.06,15.52,20.74,28.93,20.74h24.88c15.82-.38,23.34,5.27,22.57,16.93.38,10.93-7.15,16.39-22.57,16.39h-24.88v-26.83c-11.71,0-22.16-5.46-28.93-13.97v110.27h28.93v-48.59h16.79l31.83,48.6h36.45l-38.2-50.29c21.22-4.14,31.64-16.57,31.25-37.28Z"/>
    <polygon class="cls-1" points="763.32 75.82 804.98 75.82 804.98 177.49 834.48 177.49 834.48 75.82 875.57 75.82 875.57 52.66 763.32 52.66 763.32 75.82"/>
    <rect class="cls-1" x="885.1" y="52.63" width="29.53" height="124.86"/>
    <path class="cls-1" d="M965.19,52.63h-39.93v111.01c6.77-8.92,17.48-14.69,29.53-14.69v-73.15h9.83c25.85.37,39.17,13.18,39.93,38.42.33,24.12-9.59,37.67-29.76,40.62-.94.14-1.88.26-2.85.33-.76.08-1.55.14-2.34.18-.37.03-.73.05-1.1.06-1.04.05-2.1.06-3.2.05h-10.5c-13.89,0-25.65,9.32-29.35,22.04h41.49c6.09.19,11.78.02,17.05-.56.59-.05,1.2-.13,1.77-.21.41-.03.83-.1,1.23-.16.18-.02.35-.03.51-.08.41-.05.83-.11,1.24-.19.59-.06,1.16-.18,1.74-.29,31.1-5.56,46.02-26.15,44.76-61.79-.78-40.68-24.11-61.2-70.03-61.59Z"/>
    <polygon class="cls-1" points="1074.11 155.45 1074.11 126.07 1138.93 126.07 1138.93 102.9 1074.11 102.9 1074.11 75.79 1145.36 75.81 1145.36 52.64 1045.17 52.63 1045.17 177.49 1145.29 177.49 1145.29 155.45 1074.11 155.45"/>
    <polygon class="cls-1" points="652.02 155.45 652.02 126.07 716.84 126.07 716.84 102.9 652.02 102.9 652.02 75.79 723.27 75.81 723.27 52.64 623.08 52.63 623.08 177.49 723.19 177.49 723.19 155.45 652.02 155.45"/>
  </g>
  <g>
    <g>
      <path class="cls-1" d="M228.33,115.62c-24.73,3.4-49.71-.99-71.67-14.69l-32.26-20.11c-20.2-12.62-43.89-13.7-64.18-2.89C35.32,91.2,25.11,103.51.3,110.54l-.3-47.81c41.87-29.12,81.24-50.57,132.97-27.57,36.83,16.37,50.01,40.96,95.15,37.95l.22,42.51Z"/>
      <path class="cls-1" d="M228.16,133.32v44.02c-78.22,8.44-109.41-47.04-188.06-14.13-12.92,5.38-25.2,8.92-39.84,12.66l.09-46.86,34.63-11.93c39.8-13.74,83.86-10.73,122.98,4.01,23.04,8.66,44.84,12.06,70.21,12.23Z"/>
    </g>
    <circle class="cls-1" cx="206.52" cy="25.46" r="25.46"/>
  </g>
</svg>